<?xml version="1.0" encoding="utf-8"?>
<!-- Generator: Adobe Illustrator 24.0.1, SVG Export Plug-In . SVG Version: 6.00 Build 0)  -->
<svg version="1.1" id="Capa_1" xmlns="http://www.w3.org/2000/svg" xmlns:xlink="http://www.w3.org/1999/xlink" x="0px" y="0px"
	 viewBox="0 0 512 512" style="enable-background:new 0 0 512 512;" xml:space="preserve">
<style type="text/css">
	.st0{fill:#04B4E0;}
</style>
<g>
	<path class="st0" d="M175.5,145h-80c-8.3,0-15,6.7-15,15s6.7,15,15,15h80c8.3,0,15-6.7,15-15S183.8,145,175.5,145z"/>
	<path class="st0" d="M175.5,225h-80c-8.3,0-15,6.7-15,15s6.7,15,15,15h80c8.3,0,15-6.7,15-15S183.8,225,175.5,225z"/>
	<path class="st0" d="M175.5,305h-80c-8.3,0-15,6.7-15,15s6.7,15,15,15h80c8.3,0,15-6.7,15-15S183.8,305,175.5,305z"/>
	<path class="st0" d="M390.5,274.9V138c0-19.8-7.6-38.4-21.5-52.5l-60.9-62.9c0,0-0.1-0.1-0.1-0.1C294.1,8.2,274.6,0,254.6,0H61.5
		c-24.8,0-45,20.2-45,45v389c0,24.8,20.2,45,45,45h231.8c21.4,20.4,50.3,33,82.2,33c66.2,0,120-53.4,120-119
		C495.5,332.4,449.6,282.3,390.5,274.9z M46.5,434V45c0-8.3,6.7-15,15-15h193.1c12,0,23.7,4.9,32.1,13.4l60.9,62.9
		c0,0,0.1,0.1,0.1,0.1c8.3,8.5,12.9,19.7,12.9,31.5v137c-58.6,7.4-104,57.5-104,118.1c0,20.2,5.1,39.3,14,56h-209
		C53.2,449,46.5,442.3,46.5,434L46.5,434z M375.5,482c-49.1,0-89-39.9-89-89s39.9-89,89-89c49.6,0,90,39.9,90,89
		S425.1,482,375.5,482z"/>
	<path class="st0" d="M410.1,357.5c-6.4-5.3-15.8-4.4-21.1,1.9l-25.3,30.4l-5.7-11.5c-3.7-7.4-12.7-10.4-20.1-6.7
		c-7.4,3.7-10.4,12.7-6.7,20.1l16,32c2.3,4.5,6.7,7.6,11.7,8.2c0.6,0.1,1.2,0.1,1.7,0.1c4.4,0,8.7-2,11.5-5.4l40-48
		C417.3,372.2,416.5,362.8,410.1,357.5L410.1,357.5z"/>
	<path class="st0" d="M255.5,175h16c8.3,0,15-6.7,15-15s-6.7-15-15-15h-16c-8.3,0-15,6.7-15,15S247.2,175,255.5,175z"/>
	<path class="st0" d="M286.5,240c0-8.3-6.7-15-15-15h-16c-8.3,0-15,6.7-15,15s6.7,15,15,15h16C279.8,255,286.5,248.3,286.5,240z"/>
</g>
</svg>
